# xmcd CD database file
#
# Track frame offsets:
#	150
#	3408
#	25315
#	44378
#	67752
#	86623
#	105868
#	123819
#	142039
#	150930
#
# Disc length: 2251 seconds
#
# Revision: 5
# Processed by: cddbd v1.5.2PL0 Copyright (c) Steve Scherf et al.
# Submitted via: CDex 1.70beta2
#
DISCID=6b08c90a
DTITLE=Make Me See - I Go
DYEAR=2009
DGENRE=New Age
TTITLE0=Gentle Transparent
TTITLE1=Loneliness, Happiness
TTITLE2=Hard Struggle For Life
TTITLE3=I Want To Know
TTITLE4=Going Forward
TTITLE5=Impetuous Child
TTITLE6=To Live In Peace
TTITLE7=Amorf Shad
TTITLE8=Love And Sorrow
TTITLE9=Star Chase
EXTD=YEAR: 2009
EXTT0=
EXTT1=
EXTT2=
EXTT3=
EXTT4=
EXTT5=
EXTT6=
EXTT7=
EXTT8=
EXTT9=
PLAYORDER=
